<svg width="17" height="16" viewBox="0 0 17 16" fill="none" xmlns="http://www.w3.org/2000/svg">
<path d="M14.3535 6.66843C14.3535 11.3362 8.35203 15.3372 8.35203 15.3372C8.35203 15.3372 2.35059 11.3362 2.35059 6.66843C2.35059 5.07675 2.98288 3.55026 4.10837 2.42477C5.23386 1.29929 6.76035 0.666992 8.35203 0.666992C9.94371 0.666992 11.4702 1.29929 12.5957 2.42477C13.7212 3.55026 14.3535 5.07675 14.3535 6.66843Z" stroke="#00396E" stroke-linecap="round" stroke-linejoin="round"/>
<path d="M8.35204 8.66893C9.45688 8.66893 10.3525 7.77328 10.3525 6.66845C10.3525 5.56361 9.45688 4.66797 8.35204 4.66797C7.24721 4.66797 6.35156 5.56361 6.35156 6.66845C6.35156 7.77328 7.24721 8.66893 8.35204 8.66893Z" stroke="#00396E" stroke-linecap="round" stroke-linejoin="round"/>
</svg>
