<svg width="17" height="16" viewBox="0 0 17 16" fill="none" xmlns="http://www.w3.org/2000/svg">
<g clip-path="url(#clip0_12662_900)">
<path d="M8.35204 9.99998C9.45688 9.99998 10.3525 9.10434 10.3525 7.9995C10.3525 6.89467 9.45688 5.99902 8.35204 5.99902C7.24721 5.99902 6.35156 6.89467 6.35156 7.9995C6.35156 9.10434 7.24721 9.99998 8.35204 9.99998Z" stroke="#00396E" stroke-linecap="round" stroke-linejoin="round"/>
<path d="M13.2872 10.0006C13.1984 10.2017 13.1719 10.4248 13.2112 10.6412C13.2504 10.8575 13.3535 11.0571 13.5072 11.2142L13.5473 11.2542C13.6713 11.3781 13.7696 11.5252 13.8367 11.6871C13.9039 11.849 13.9384 12.0225 13.9384 12.1978C13.9384 12.3731 13.9039 12.5466 13.8367 12.7085C13.7696 12.8704 13.6713 13.0175 13.5473 13.1414C13.4234 13.2654 13.2763 13.3637 13.1144 13.4309C12.9525 13.498 12.779 13.5325 12.6037 13.5325C12.4284 13.5325 12.2549 13.498 12.093 13.4309C11.9311 13.3637 11.784 13.2654 11.6601 13.1414L11.6201 13.1014C11.463 12.9476 11.2634 12.8445 11.047 12.8053C10.8307 12.7661 10.6076 12.7925 10.4065 12.8813C10.2093 12.9658 10.0411 13.1062 9.92259 13.2851C9.80411 13.464 9.74053 13.6736 9.73967 13.8882V14.0016C9.73967 14.3553 9.59916 14.6945 9.34906 14.9446C9.09895 15.1947 8.75973 15.3352 8.40602 15.3352C8.05231 15.3352 7.71309 15.1947 7.46298 14.9446C7.21288 14.6945 7.07237 14.3553 7.07237 14.0016V13.9416C7.0672 13.7208 6.99576 13.5068 6.86732 13.3272C6.73889 13.1476 6.5594 13.0109 6.35219 12.9347C6.15107 12.8459 5.92796 12.8194 5.71165 12.8586C5.49533 12.8979 5.29573 13.001 5.13857 13.1547L5.09856 13.1947C4.9747 13.3187 4.82761 13.4171 4.66571 13.4842C4.50381 13.5513 4.33026 13.5859 4.155 13.5859C3.97974 13.5859 3.80619 13.5513 3.64429 13.4842C3.48239 13.4171 3.3353 13.3187 3.21144 13.1947C3.08744 13.0709 2.98907 12.9238 2.92196 12.7619C2.85484 12.6 2.8203 12.4264 2.8203 12.2512C2.8203 12.0759 2.85484 11.9023 2.92196 11.7404C2.98907 11.5785 3.08744 11.4315 3.21144 11.3076L3.25145 11.2676C3.40518 11.1104 3.5083 10.9108 3.54752 10.6945C3.58674 10.4782 3.56027 10.2551 3.4715 10.054C3.38697 9.85673 3.24662 9.68853 3.06771 9.57005C2.88881 9.45157 2.67917 9.38799 2.46459 9.38713H2.35123C1.99752 9.38713 1.6583 9.24663 1.4082 8.99652C1.15809 8.74641 1.01758 8.40719 1.01758 8.05348C1.01758 7.69977 1.15809 7.36055 1.4082 7.11045C1.6583 6.86034 1.99752 6.71983 2.35123 6.71983H2.41125C2.63196 6.71466 2.84602 6.64322 3.02559 6.51479C3.20517 6.38635 3.34195 6.20686 3.41815 5.99965C3.50692 5.79853 3.5334 5.57542 3.49418 5.35911C3.45495 5.14279 3.35183 4.94319 3.1981 4.78603L3.15809 4.74602C3.03409 4.62216 2.93573 4.47507 2.86861 4.31317C2.80149 4.15127 2.76695 3.97772 2.76695 3.80246C2.76695 3.6272 2.80149 3.45365 2.86861 3.29175C2.93573 3.12985 3.03409 2.98276 3.15809 2.8589C3.28195 2.7349 3.42904 2.63653 3.59094 2.56942C3.75285 2.5023 3.92639 2.46776 4.10165 2.46776C4.27692 2.46776 4.45046 2.5023 4.61236 2.56942C4.77427 2.63653 4.92135 2.7349 5.04521 2.8589L5.08522 2.89891C5.24238 3.05264 5.44199 3.15576 5.6583 3.19498C5.87462 3.23421 6.09772 3.20773 6.29885 3.11896H6.35219C6.54942 3.03443 6.71763 2.89408 6.8361 2.71518C6.95458 2.53627 7.01816 2.32663 7.01902 2.11205V1.99869C7.01902 1.64499 7.15953 1.30577 7.40964 1.05566C7.65975 0.805549 7.99897 0.665039 8.35267 0.665039C8.70638 0.665039 9.0456 0.805549 9.29571 1.05566C9.54582 1.30577 9.68633 1.64499 9.68633 1.99869V2.05871C9.68718 2.27328 9.75076 2.48293 9.86924 2.66183C9.98772 2.84073 10.1559 2.98109 10.3532 3.06562C10.5543 3.15438 10.7774 3.18086 10.9937 3.14164C11.21 3.10242 11.4096 2.99929 11.5668 2.84556L11.6068 2.80555C11.7306 2.68156 11.8777 2.58319 12.0396 2.51607C12.2015 2.44896 12.3751 2.41441 12.5503 2.41441C12.7256 2.41441 12.8992 2.44896 13.0611 2.51607C13.223 2.58319 13.37 2.68156 13.4939 2.80555C13.6179 2.92941 13.7163 3.0765 13.7834 3.2384C13.8505 3.40031 13.8851 3.57385 13.8851 3.74911C13.8851 3.92438 13.8505 4.09792 13.7834 4.25982C13.7163 4.42173 13.6179 4.56881 13.4939 4.69267L13.4539 4.73268C13.3002 4.88984 13.197 5.08945 13.1578 5.30576C13.1186 5.52208 13.1451 5.74518 13.2338 5.94631V5.99965C13.3184 6.19688 13.4587 6.36509 13.6376 6.48357C13.8165 6.60204 14.0262 6.66563 14.2408 6.66648H14.3541C14.7078 6.66648 15.047 6.80699 15.2972 7.0571C15.5473 7.30721 15.6878 7.64643 15.6878 8.00014C15.6878 8.35384 15.5473 8.69306 15.2972 8.94317C15.047 9.19328 14.7078 9.33379 14.3541 9.33379H14.2941C14.0795 9.33464 13.8699 9.39823 13.691 9.5167C13.5121 9.63518 13.3717 9.80339 13.2872 10.0006Z" stroke="#00396E" stroke-linecap="round" stroke-linejoin="round"/>
</g>
<defs>
<clipPath id="clip0_12662_900">
<rect width="16.0038" height="16.0038" fill="white" transform="translate(0.350586 -0.00195312)"/>
</clipPath>
</defs>
</svg>
