<svg width="17" height="16" viewBox="0 0 17 16" fill="none" xmlns="http://www.w3.org/2000/svg">
<g id="Icon Set/user-plus" clip-path="url(#clip0_12662_891)">
<path id="Vector" d="M11.02 14.001V12.6673C11.02 11.9599 10.739 11.2815 10.2387 10.7812C9.73853 10.281 9.06009 10 8.35267 10H3.68489C2.97747 10 2.29903 10.281 1.79881 10.7812C1.2986 11.2815 1.01758 11.9599 1.01758 12.6673V14.001" stroke="#00396E" stroke-linecap="round" stroke-linejoin="round"/>
<path id="Vector_2" d="M6.01887 7.33266C7.49198 7.33266 8.68618 6.13847 8.68618 4.66535C8.68618 3.19224 7.49198 1.99805 6.01887 1.99805C4.54576 1.99805 3.35156 3.19224 3.35156 4.66535C3.35156 6.13847 4.54576 7.33266 6.01887 7.33266Z" stroke="#00396E" stroke-linecap="round" stroke-linejoin="round"/>
<path id="Vector_3" d="M13.6875 5.33301V9.33397" stroke="#00396E" stroke-width="1.33365" stroke-linecap="round" stroke-linejoin="round"/>
<path id="Vector_4" d="M15.6875 7.33301H11.6865" stroke="#00396E" stroke-width="1.33365" stroke-linecap="round" stroke-linejoin="round"/>
</g>
<defs>
<clipPath id="clip0_12662_891">
<rect width="16.0038" height="16.0038" fill="white" transform="translate(0.350586 -0.00195312)"/>
</clipPath>
</defs>
</svg>
