<?xml version="1.0" encoding="utf-8"?>
<!-- Generator: Adobe Illustrator 26.1.0, SVG Export Plug-In . SVG Version: 6.00 Build 0)  -->
<svg version="1.1" id="Layer_1" xmlns="http://www.w3.org/2000/svg" x="0px" y="0px"
     viewBox="0 0 336 152" style="enable-background:new 0 0 336 152;" xml:space="preserve">
<style type="text/css">
	.st0{fill:#48752D;}
	.st1{fill:#00396E;}
</style>
<g>
	<path class="st0" d="M37.7,123.2c0.9,0,1.8,0.2,2.6,0.7c0.8,0.5,1.5,1.1,2,2c0.5,0.9,0.7,1.8,0.7,2.7c0,0.9-0.2,1.8-0.7,2.7
		c-0.5,0.8-1.1,1.5-2,2c-0.8,0.5-1.7,0.7-2.7,0.7c-0.9,0-1.8-0.2-2.7-0.7c-0.8-0.5-1.5-1.1-2-2c-0.5-0.8-0.7-1.7-0.7-2.7
		c0-0.9,0.2-1.8,0.7-2.7c0.5-0.9,1.1-1.5,2-2C35.9,123.4,36.8,123.2,37.7,123.2z M37.7,124.2c-0.7,0-1.4,0.2-2.1,0.6
		c-0.7,0.4-1.2,0.9-1.6,1.6c-0.4,0.7-0.6,1.4-0.6,2.2c0,0.8,0.2,1.5,0.6,2.1s0.9,1.2,1.6,1.6s1.4,0.6,2.1,0.6c0.7,0,1.5-0.2,2.1-0.6
		s1.2-0.9,1.6-1.6c0.4-0.7,0.6-1.4,0.6-2.1c0-0.8-0.2-1.5-0.6-2.2c-0.4-0.7-0.9-1.2-1.6-1.6C39.1,124.4,38.4,124.2,37.7,124.2z
		 M35.3,131.4v-5.7h1.2c1.1,0,1.7,0,1.8,0c0.4,0,0.7,0.1,0.9,0.2c0.2,0.1,0.4,0.3,0.5,0.5c0.1,0.2,0.2,0.5,0.2,0.8
		c0,0.4-0.1,0.8-0.4,1.1c-0.3,0.3-0.6,0.5-1.1,0.5c0.2,0.1,0.3,0.1,0.4,0.2c0.1,0.1,0.2,0.2,0.4,0.4c0,0.1,0.2,0.3,0.4,0.7l0.7,1.1
		h-1.4l-0.5-0.9c-0.3-0.6-0.6-1-0.8-1.2c-0.2-0.2-0.5-0.2-0.8-0.2h-0.3v2.3H35.3z M36.4,128.1h0.5c0.7,0,1.1,0,1.2-0.1
		c0.2-0.1,0.3-0.1,0.4-0.3c0.1-0.1,0.1-0.3,0.1-0.4c0-0.2,0-0.3-0.1-0.4s-0.2-0.2-0.4-0.3c-0.2-0.1-0.6-0.1-1.2-0.1h-0.5V128.1z"/>
</g>
<g>
	<path class="st1" d="M60.5,128.9c4.2-0.9,4.2-4.2,4.2-11.5V98.5c0-2.9-1-4.2-3.5-4.6v-0.6c2.9,0.1,5.4,0.1,7.4,0.1
		c5.1,0,9.1-0.1,12.3-0.1c12.8,0,19.2,2.4,19.2,8.2c0,4.6-4.4,7.4-13.2,8.3c11.1,0.6,16.7,3.8,16.7,9.5c0,6.9-6.9,10.3-20.7,10.3
		c-3.5,0-7.9-0.2-13.4-0.2c-3.1,0-6,0.1-8.9,0.2V128.9z M78.2,109.2c7.5,0,11-2.2,11-7.3c0-4.8-3.6-6.8-11.1-6.8
		c-0.6,0-1.7,0.1-3.4,0.2v13.8C76.2,109.2,77.4,109.2,78.2,109.2L78.2,109.2z M74.8,116.8v1.2c0,7.5,0.2,9.5,6.8,9.5
		c7,0,10.5-2.7,10.5-8.1c0-6.3-3.6-8.4-12.2-8.4c-1,0-2.8,0.1-5.1,0.2V116.8z"/>
</g>
<g>
	<path class="st1" d="M139.7,129.5c-2.5-0.1-5-0.1-7.5-0.1h-2.7c-1-1.4-1.7-2.9-2.1-4.6c-2.3,3.7-5.4,5.3-10.1,5.3
		c-7.6,0-12.6-3.8-12.6-8.8c0-6.2,7.3-9.3,21.9-9.7v-0.2c0-6.6-2.6-9.9-7.3-9.9c-4.9,0-7.6,3-9.5,9.4h-0.9l-2.8-8.3
		c4.5-1.9,9.3-2.9,14.4-2.9c5.8,0,10.1,1.3,12.5,3.7c2.6,2.6,2.6,5.7,2.6,10.2v2.6c0,7.9,0.4,11.7,4,12.4L139.7,129.5z M125.3,113.1
		c-6.6,0-10.1,2.9-10.1,8c0,4.1,2.1,6.5,5.1,6.5c4.8,0,6.5-4.3,6.5-12.7v-1.7C126.2,113.1,125.7,113.1,125.3,113.1z"/>
</g>
<g>
	<path class="st1" d="M154.5,128.8v0.7h0.2c0,0-3.6-0.1-10.8-0.1c-2.1-0.9-2.3-3.7-2.3-8.7v-4l0.1-13.4h-3.4l0.3-1.6
		c5-2.4,8.6-5.4,11.1-9.7h1c-0.2,1.7-0.3,4.1-0.3,7.1v1.9h7l-0.7,2.3h-6.3v12.6C150.3,123.9,150.7,127.8,154.5,128.8"/>
</g>
<g>
	<path class="st1" d="M166.1,111.4c-0.1,0.9-0.1,1.8-0.1,2.7c0,8.6,4.1,13.3,10.5,13.3c5.5,0,9.4-3.5,11.4-10.2l1.6,1.3
		c-2.5,7.7-7.9,11.6-16.2,11.6c-10.4,0-17.5-6.3-17.5-15.3c0-8.8,7-15.1,17.2-15.1c9,0,14.8,4.2,16,11.8L166.1,111.4z M172.8,101.4
		c-3.3,0-5.8,2.8-6.6,8.1h12.5C178.5,104.2,176.1,101.4,172.8,101.4L172.8,101.4z"/>
</g>
<g>
	<path class="st1" d="M193.6,117.9l0.9,0.1c1.3,6.8,4.9,10.3,10.3,10.3c4.2,0,7.2-2.3,7.2-5.4c0-3.2-2.7-4-8.1-5.2
		c-7.8-1.8-11.5-3.4-11.5-8.7c0-5.2,5.6-9.3,15.1-9.3c4.4,0,8.6,0.8,12.3,2.4l-2.8,7.6l-0.8-0.1c-1.7-5.4-5.3-8.3-9.5-8.3
		c-3.4,0-6,2.2-6,4.8c0,3.8,3.3,3.9,9.2,5.2c7.6,1.6,11.4,3.4,11.4,8.7c0,6.2-6.1,10.2-16.7,10.2c-5.2,0-10.1-1.1-14.3-3.1
		L193.6,117.9"/>
</g>
<g>
	<path class="st1" d="M238.2,130.1l-13.6-24.5c-1.5-2.7-2.6-4.4-4.5-4.8v-0.6c3.1,0.1,6,0.2,8.8,0.2c2.9,0,5.6-0.1,8.2-0.2v0.6
		c-2.1,0.8-3.1,1.8-3.1,3.3c0,0.9,0.4,2.1,1.1,3.4l6.5,11.7l5.7-11.7c0.6-1.3,0.9-2.4,0.9-3.4c0-1.9-1.2-2.9-3.7-3.4v-0.6
		c1.9,0.1,3.9,0.2,6,0.2c2.1,0,4.3-0.1,6.5-0.2v0.6c-2.7,0.7-4.7,3.3-7,7.8l-11,21.5H238.2"/>
</g>
<g>
	<path class="st1" d="M267.5,110.6v7.7c0,6.6,0.2,9.7,3.9,10.6v0.7c-2.9-0.2-5.7-0.2-8.4-0.2c-2.4,0-5.1,0.1-8.2,0.2v-0.7
		c3.7-1.1,3.9-4.1,3.9-10.2v-10c0-3.9-0.2-5.4-3.4-5.7v-0.7c4.7-0.6,8.9-1.2,12.4-1.9L267.5,110.6z M263,88.9c2.7,0,4.8,1.9,4.8,4.4
		c0,2.6-2.1,4.4-4.8,4.4c-2.8,0-4.8-1.8-4.8-4.4C258.2,90.8,260.3,88.9,263,88.9z"/>
</g>
<g>
	<path class="st1" d="M271.3,91.5v-0.6c4.9-0.6,9-1.2,12.4-2c-0.1,2.3-0.2,5.7-0.2,10.2v19.2c0,6.6,0.2,9.7,3.9,10.6v0.7
		c-2.9-0.2-5.7-0.2-8.4-0.2c-2.4,0-5.1,0.1-8.2,0.2v-0.7c3.7-1.1,3.9-4.1,3.9-10.2V97.1C274.7,93.2,274.4,91.7,271.3,91.5"/>
</g>
<g>
	<path class="st1" d="M287.2,91.5v-0.6c4.9-0.6,9-1.2,12.4-2c-0.1,2.3-0.2,5.7-0.2,10.2v19.2c0,6.6,0.2,9.7,3.9,10.6v0.7
		c-2.9-0.2-5.7-0.2-8.4-0.2c-2.4,0-5.1,0.1-8.2,0.2v-0.7c3.7-1.1,3.9-4.1,3.9-10.2V97.1C290.6,93.2,290.4,91.7,287.2,91.5"/>
</g>
<g>
	<path class="st1" d="M312.6,111.4c-0.1,0.9-0.1,1.8-0.1,2.7c0,8.6,4.1,13.3,10.5,13.3c5.5,0,9.4-3.5,11.4-10.2l1.6,1.3
		c-2.5,7.7-7.9,11.6-16.2,11.6c-10.4,0-17.5-6.3-17.5-15.3c0-8.8,7-15.1,17.2-15.1c9,0,14.8,4.2,16,11.8L312.6,111.4z M319.3,101.4
		c-3.3,0-5.8,2.8-6.6,8.1h12.5C324.9,104.2,322.6,101.4,319.3,101.4L319.3,101.4z"/>
</g>
<g>
	<path class="st0" d="M98.5,62.9c0,0,1.9,3.2-0.4,3.7c1.4,0.1-0.5,2,1.3,1.6c0.8,0.6,0.8,1.3,0.9,2.2c-0.9,0.3-0.5,1.3-1.3,1.8
		c-0.4,0.2-0.6-0.4-0.9-0.5c-0.1-0.6,0.2-1.6-0.2-1.8c-1.6,0.1,0.4,1.4-1.1,1.9c-0.9,0-1.5-1.1-2.5-1.1c-0.1-0.5-0.9-0.5-1.3-0.3
		c0,0.4-0.4,0.6-0.5,0.6c-1.1,0-1.1-0.9-1.9-1.3c-0.6-0.9-1.5-1.3-2.7-1.3c-0.6,0.4-0.1,1-0.1,1.4c0.8,1.1,2.3-0.5,2.8,1.1
		c0.4,0,0.5,0.3,0.6,0.5c0.1,0.4-0.1,0.8-0.4,0.8c-0.4-0.6-1.4-0.6-2-0.8c-0.6,0.6,0.8,1.3-0.3,1.8c-0.1,1.3,1.8,0.8,1.8,2
		c0,0.5-0.4,0.8-0.8,0.9c-1-0.6-1.1,1.1-2.2,0.5c-1.6-0.4-1.1-2.3-1.9-3c-0.3,0.4-0.8,1.1-0.3,1.6c0.1,0.5,0.8,0.9,0.5,1.5
		c-0.9,0.6-2.1-1.4-2.6,0.2c0.5,0.3,1,0.6,0.6,1.4c-1.1,0.1-2-1.5-2.9-0.1c-0.8,0.1-0.9-0.8-1.3-0.8c-0.4,0.9,0.8,1.4,1.3,2
		c0.6,0.2,0.4-0.4,0.9-0.4c1.6,0,2.8,0.6,4.2-0.4c1.3,0.5,0.3,2.5,1.5,3.2c0.1,0.1,0.1,0.5,0.1,0.8c-0.3,0-0.5,0.3-0.6,0
		c-0.6-0.2-0.6-1.8-1.5-1.1c-0.4,0.4,0,0.8,0.1,1.1c0.9,0.1,1.1,0.8,1.4,1.7c-0.6,1.1-2.1-0.9-2.4,1c0.1,0.4-0.1,1-0.6,0.9
		c-0.9,0.1-1-0.8-1.5-1.1c-0.1-0.4-0.3-0.8-0.6-1l-0.6,1.3c-0.8-0.4-0.6-1.5-1.6-1.3c-0.9,0.8,0.6,1-0.1,1.9
		c0.5,0.4,1.1,0.1,1.8,0.4c0.5,0.4,0.1,1.8,1.4,1.5c0.5,0.2,0.6,0.9,0.5,1.4c-0.8,0.5-2.3-0.3-2.4,0.6c0.3,0.4,1,0.1,0.9,0.6
		c-3-0.2-6.3,0.8-8.6-1.1c0.1,1.1-1.4,0-1.4,1.1c-0.9,0.1-0.9-0.8-1.1-1.3c-0.8,0-1,0.8-1,1.3c-0.6-0.2-1.5,0.4-2-0.2
		c-0.5-0.9,0.8-0.6,0.4-1.6c-0.5,0.1-1,0-1.5-0.1c-0.3-0.5-0.9-0.8-0.9-1.5c0.4-0.8,2-1,1.1-2.1l-0.5-0.2c0.1,1.8-2,0.4-2,2
		c-0.1,0.2-0.4,0.1-0.6,0.1l-0.4-0.4c-0.3,0.3-0.8,0.4-1,0.3c-0.8-0.9,0-2.5-1.3-2.9c-0.1-0.8,0.4-2,0.2-2.6
		c0.5-0.5,0.2,0.5,0.5-0.6c0.7-2.1-2.2-0.6-1.8-2.6c-0.5,0.5-2.5,2.1-3.2,1.7l-0.6-0.5c-1.1,2.3-0.8,5.2-1.5,7.7
		c0.1,1.8,1.9,3.7,0.5,5.5c-0.4,2.5-1,5.9,0.2,8.4c0.9,3-2,5-0.5,7.8c-0.6,4.3,0.3,4.3-0.5,6.4c0.6,3.4,1,6.7,1.4,12.5
		c1.1,1.8,1.4,2.8,2,3.1c0.4,1,4.2,0.7,4.2,0.7c0.4-0.4,2.9,0,3.8-0.5c2-0.5,13.7,0.6,10.8,0.6c-2.9,0-8.7,0.6-8.6,1.1
		c-1.1,0,5.9,2,4.9,2.5c-4.7,1.7-5.2-0.6-8.1,1c-1,0.4,5.1,3.1-0.4,1.6c-5.6-1.5-8.3-0.9-9.3-0.4c-1.4-0.1,0.3,3.5-1.1,3.4
		c-0.3,0.9-2.8-1.1-3.2-0.4c-0.5,0.1-1.3-0.1-1.4,0.5l-0.1,1.3c-0.7-0.1-2.8,2.2-6.2,1.5c-2.2,0.8-4.4,1.6-5.2,2.2
		c0,0-1.7,0.8-3.7,0.7c-2-0.1-1.7,1.1-4,1.8c-2.4,0.7-5.2,1.2-5.2,1.2c0.9-0.9-3.5,0.2-3.5,0.2c-8.7,5.3-7.9-0.5-10,0.2
		c-2.1,0.7-8.6-0.6-8.6-0.6c2.5-1.6-1.3-1.4,8.6-3.1c2-2,6.4-2.8,9.4-4.4c0.9-2.4-0.3-3,0.1-5.9c-0.5-2.4-2.3-4.2-4.7-4.9
		c-0.9-0.6-0.6-0.2-0.9-1.1c-0.8-1-0.5-2.5-1.4-3.3c-1.1,1.3-3.3-0.8-3.2,1.6c-0.8,0.4-1.3-0.5-1.8-0.6c-0.8,0.1-1.8,0.1-1.9-0.6
		c-0.1-1.1,1.5-1.4,1.4-2.7c1,0,2.1,0.3,3.2-0.1c0.3-0.1,0.1-0.5,0.1-0.8c-1.4,0.1-2.9-0.1-4.3-0.1c-0.1-0.4,0-0.6,0.3-0.8l-0.1-0.4
		c-0.6,0.3-1.4-0.1-1.9,0.3c-0.6-0.5-0.3-1.8-0.1-2.5c-0.2-0.8-1.3,0-1.5-0.8c0.6-1,0.1-1.6,0.1-2.7c0.3-0.6-0.6-0.8-1-1.1
		c0.1-0.6,1-0.5,1.4-1c1.1,0.3,2.3,0.9,3-0.2c0.1-0.5,0.2-1,0.2-1.6c-0.4-0.1-0.6,0.3-0.8,0.6c-0.9,0.2-1.5,1-2.5,0.6
		c-0.5-1-1.1,0.1-1.9-0.3c0.9-1.1-1.9-2.1,0.3-2.8c0.8-0.9-1-1.1,0-1.9c0.8-0.3,0.9-1.1,1.9-0.6c0.3-0.1,0.4-0.8,0-0.8
		c-1,0.1-1.4-0.9-1.3-1.8c0-1,0.4-1.4,1-2c0.5-0.2,1-0.2,1.5-0.2c-0.4-0.2-1-0.1-1.1-0.5c-0.1-0.6,0.8-0.4,0.5-1
		c0.1-1.3,1.3-1.9,0.9-3.4c0.4-0.1,0.8-0.1,0.9-0.5c-0.2-1,1-0.9,1.3-1.5c0.2-0.8,1.1-1,0.9-2c0.9-0.3,0-0.9,0-1.4
		c0.1-1,0.9-2.3,1.8-2.6c0.3,0.2,0.6,0,0.9-0.3c0-1.5,2-0.9,1.6-2.5c1.1-1.5,5.1-1.1,6-2.9c1.8-0.9,4.2-0.2,6-0.3
		c1.8,0.8-1,1.1,0.2,2.1c0.6-0.5,1.6-0.3,2.4,0.1c0.8,1.3,0.9,2.6,2.1,3.5v0.4c-0.5,0.1-1.3-0.9-2-0.1c-0.1,0.5,0.5,0.6,0.6,0.8
		c0.9-0.1,1.4,0.8,2.4,0.3c0.9,0.5-0.6,1.9,0.9,1.9c0.6,0.6,0.5,1.4,0.9,2l-0.8,0.8c1.6,0.6,1.9,2.5,2.7,3.9
		c0.5,1.1-1.5,2.9,0.6,2.8c0.9,0.5,0.5-0.4,1.3,0.1c0.6,1-1,0.8-0.5,1.8c0.4,0.5,0.1,0.6,0,1.6c0.3,0.9,0,2.1,0.5,2.9
		c-0.4,0.6-1.3-0.1-1.1,0.8c0.8,0.4,1.8,0.6,1.9,1.6c0.1,0.5,0.3,1.3,1,1.1v1.6c-0.8,0-1.9-0.1-2.4,0.4c1.4,0.4,0.4,2.1,0.5,3.1
		c-0.1,1.1-1.8,0.2-1.8,1.5c0.6-0.1,1.3,0.6,0.9,1.4c-0.1,1.3-1.9,0.5-1.8,1.9c-0.6,0.3-0.6,0.9-0.6,1.5l-1.6,1.4
		c-0.6-0.4-1.3,0.1-1.4,0.6l-0.1,1.3c-1.1,0.2-1.9-0.6-2.9-0.3c-0.9,0.8-1.5,1.9-2.8,2c-0.5,0.8,0,0.2-0.4,1.1
		c0,1.9-0.3,4.5-1.7,6.1c0,2.1,0,2.3,0.4,4.4c0.8,0.8,2.1,0.3,3,0.3c0.9-1,2.3-1,3.4-1.5c3.4-1.4,4.1-3.1,7.9-3.8
		c1.5-1,5.6-2.5,5.8-2.3c0.2,0.2,1.4-1.4,1.8-3.5c-0.1-2.1,0-2.6,0-4.8c0.1-4.9,0.6-7.9,1.1-10.9c-0.2-2.8-0.5-5.1-1.5-7.5
		c-0.4-1.3,0.6-2.1,1-3.2c0.6-3.9-1.3-6.8-1.3-10.6c-1-2.7-1.7-5.3-3.2-7.7c-1.2-1.7-2.8-3.3-4.1-5.6C36,79,35.4,78.5,35,77.6
		c-0.8,0-1,1.1-1.9,1.4c0,0,0,0.1,0,0.1c-0.6-0.2-0.9-0.1-1,0.5h0.1c0,0,0,0.1,0,0.1v-0.1h0c0-0.5,0.7-0.3,0.9-0.5
		c0.1,0.5,1.1,0.4,0.9,1.3c-1.3,0.8-2.1,0.8-2.8,2.3c0,0.4,0.3,0.5,0.1,0.6c-1,0.1-1.7-0.9-2.4-1.5c-0.6,0.2-1.3,0.1-1.8-0.3
		c-0.8-0.4,0.4-2.1-1-1.1c-0.3,0.6-0.6,1.3-1.4,1.4c-0.8-0.1-1-0.8-1.4-1.4c-0.5-1.8,1.3-1.5,1.6-2.8c-1-0.8-1.6,0.8-2.6,0.4
		c-0.4,1-1.5,1.3-1.3,2.5c-0.8,0.9-0.5,3.2-2.3,2.9c-0.9-0.9-2.6-0.4-3.3-1.8c-0.9-0.5-1.4,0.8-2.1,0.8c-0.3,0.4-1,1.3-1.5,0.8
		c-0.3,0-0.4-0.4-0.3-0.5c0.3-1,1.4-1.6,1.3-2.6l-1.5-0.3c-0.4,0.6,0.8,1.4-0.1,1.9H9.8c-0.5-0.6-1-1.5-2-1.3c0,1.1-1.3,1-1.9,1.3
		c-0.2-0.1-0.6-0.1-0.6-0.4c0,0-1.5-1.9,0.5-2.5c0.1-0.8,1.1-0.6,1.8-1C8,78,8.8,78.3,9.2,77.9c0.1-0.4,0.1-1.1,0.7-1.1
		c1,0.1,1.8,0.1,2.4-0.5c0.1-0.9,0.6-1.6,1.1-2.2c1.6,0.4,0.9-1.6,0.5-0.8c-0.8,0.4-1.5,1.3-2.5,0.8c-0.5-0.6-1.2,0.3-1.5-0.3
		c-1.4,0-3.7,0.1-3.8,1.4c-0.1,0.4-0.5,0.1-0.9,0.2c-1.1-1.4,1.4-2.1,0.6-3.5c-1-0.2-2.5,0.4-2.8-0.9c-0.4-1.6,2.1-0.4,1.4-2
		c-0.8-0.5-2-0.1-2.4-1.1c-0.9,0-0.9,1.9-1.8,0.8c-0.3-0.3-0.5-0.8-0.1-1c0.4-1.6,2.9-0.9,2.7-2.9c0.4-0.6,1.3-0.5,1.8-0.8
		c0.8,0.4,0.1,1.6,0.9,1.5c0.6-0.4,0.4-1.1,0.6-1.8c-0.5-1.8-2.7,1.3-2.3-1.1c1-0.6,1.6-1.4,3-1.4c1.1-0.6,3-2.3,2.5-2.5
		c-0.9-0.2-1.1,0.8-1.9,0.4c-0.5,0.1-0.6,0.9-1,0.9c-0.9-0.9-2.5,0.4-2.9-1l-0.4-0.1c-1,0.5-0.4,3.3-2.1,2c-0.1-0.5,0.3-1.3-0.3-1.5
		l-0.5,0.2c-0.5-0.9,0.3-2,0.8-2.7C1.7,56.1,1.8,55,1.8,54c0.4-0.9,2-1.7,3.2-2.2c-1.1-1.1,0.9-1.2,1-2.2c0.5-0.5,1.2-0.7-0.2-1.4
		c-0.1,0-0.1-0.1-0.2-0.1c-0.1,0.5-0.1,1.1-0.8,1.1c-0.8,0.2-1.1-0.5-1.8-0.6v-1.4c0.8,0.2,0.4-1.7,2.6-1.7c0.1,0,0.1-0.1,0.1-0.2
		c1,0.1,1.8-0.2,2.5-0.8c0-0.5-0.6-0.5-0.5-1.1c0.1-0.2,0.3-0.5,0.5-0.8c-0.6,0.4-1.4,0.8-2,0c-0.2-0.6,0-1.5,0.8-1.8
		c0.6-0.1,1-0.2,1.3-0.9c-1.1-0.6-0.1-1.6,0.3-2.5c0.4-0.4-0.4-2.3-0.9-2.1c0,0-2,0-2.4-0.9c-0.2-0.3-1.4,0.4-2.4,0.6
		c-0.4-0.3-0.3-1,0.1-1.3C4,32.9,4.6,31.6,6,31.5C7.1,32,7.4,30.6,7.8,30v-0.5c-0.4-0.1-1.1,1.4-1.6,0.4c-0.3-0.9,1.3-1.3,1.1-2.1
		c-0.5,0-1-0.2-1.5-0.5c0.5-1.9,3.3,0.1,3.4-2c1.8-1.6,4.8-0.5,6.8-1.6c0.5,0,1,0.3,1.3,0.5c0.4-0.2,0.1-0.6,0.3-1
		c-0.4-0.5-0.9-0.4-1.4-0.4C15.8,22.8,16,23,15.6,23c-0.5,0-0.4-0.5-0.6-0.6c-0.5-0.3-1.1,0.8-1.4,0c0.1-1.8,3.1-2.1,1.5-3.9
		c-0.5-1.1,0.9-1.3,0.9-2c1.5-1.1,2.5-2.8,4.4-2.9c0.4-1.3,2.3-1.4,2-3.2c1.1-0.9,2.8,0,3.9-0.9c1,0.3,2-0.4,2.6-1
		c0.6-0.3,1.6-1.1,2.3-0.3c0.5,1-1,0.8-0.8,1.5c1.3,0.4,3.4,0.4,4.4-0.8c-0.1-0.9-2.5-0.1-1.6-1.8c1.1,0,1.9-1.1,2.9-1.5
		c-0.6,0.1-1.8-0.4-2.1,0.1c-0.5,0-1.4,0.1-1.6-0.1c0.2-0.5,0.8-1.3,1.4-1.5C34.5,3,37.3,4.6,37,2.6c1.1-1.8,3.4-1.6,5.3-1.9V0.4
		c1.1-0.2,1.6,0.4,2.5,0.5c0.5-1.3,2.7-1.4,3.5-0.2c0.6,0,1.4-0.6,2-0.1c0.3,0.2,0,0.9,0.3,1c1.1,0.1,2.3-0.3,3.4-0.1
		c0.8,0.1,1.6-0.3,2.4,0.4l0.1,1.3c1.4,0,3,0.1,3.4,1.4c-0.1,0.9,0.9,1,1.4,1.1c2.4-0.4,4.3,0.5,6.3,1.6c0.6,1.9,4,0.9,3.5,3.4
		c-0.2,0.4-1-0.1-0.9,0.5l0.3,0.1c1.8-0.5,4.3-1.5,5.8,0.2c0.8,0,1.8,0.3,1.8,1.1c1.8,0.9,3.7,1.3,4.9,2.8c-0.6,1.4,1.3,2,0.9,3.4
		c-1.5,0.4-1.9-2.3-3.5-1.6v1.1c-1.1-0.1-2-1.4-2.9-0.8c1.1,0.6-0.8,1.8,1,2c0.4,0.6,1.9-0.1,1.9,1c0.5,0.4,1.3,0.2,1.8,0.5
		c0.9,0.9,3,1.1,2.4,2.5c-0.5,0.4-0.6,1-1.3,0.9c-0.1-0.5-0.1-1.1-0.6-1.5c-1,0.6,0.2,2.4-1.3,2.6c0,0.5-0.5,1.1,0,1.5
		c0.8,0.4,0.9-0.4,1.4-0.6l0.1-1c0.9,0.8,2.9-1.4,3.3,0.8c-0.1,0.5,0,1,0.4,1c0.5-0.1,0.1-0.9,0.3-1.4c1.6,0.1,4.5-1,5.8,1
		c1.1,1-0.1,2.9,1.4,3.8c-0.2,0.6,0.6,0.6,0.8,1c0.3,0.6-0.2,1.5,0.5,1.6c0.9,0.1,1.5,0.5,1.6,1.4c0.3,0.6-0.2,1.1-0.6,1.4
		c-0.6,0-0.8-0.8-1.4-1c-0.8,0.2-1.4-0.3-1.8,0.5c0.1,0.5,0.5,0,0.9,0.4c0.4,1,2.1,0,2.1,1.5c0.1,0.9-2,1-1.3,2.3
		c0.3,0.6,1.5,0.5,1.4,1.6c0,0.4-0.1,0.9-0.6,0.8c-0.6,0.1-0.6-1.1-1.3-0.4c0.3,0.9,0.5,1.8,1.5,2l0.8-0.1c0.1,0.3,0.5,0.8,0.1,1
		c-1.4,0.6-2.5-0.4-3.7-0.9c-0.2-0.4-0.1-1.1-0.8-1.4c-0.1,1.1,2.1,2.9,0.1,3.9c-0.9,0.1-1.3-1.1-2-0.2c-0.4,0.1-0.6,0.8-0.3,1
		c1.1-0.4,2.5,0.4,3.8,0.1c0.3,0.8,1.3,1.1,1.6,1.8c-0.6,0.5-1.5-0.9-2.1,0c0.4,1.4,2.1,1.5,2.4,2.6c-0.8,0.3-1.7,0.4-2.5,0.3l-1-1
		c-0.4,0.4-0.6,0.6-0.5,1c0.1,0.6,0.8-0.4,1.1,0.2l0.3,1c2,0.1,4.4-0.2,6.1,1v0.4c-0.5,0.4-1-0.3-1.4,0.3c0.5,0.8,1.4,0.9,2.1,1.6
		c0,0.5-1.3,0.6-0.6,1.5c2.3,0.2,0.9,2.7,0.9,3.3h-1.8c-0.1,0.8,1.3,0.4,0.9,1.4C99.2,62.8,98.7,62.5,98.5,62.9L98.5,62.9z
		 M6.2,51.5c0.3-0.1,0.5-0.2,0.3-0.2C6.4,51.3,6.3,51.4,6.2,51.5z M6.8,103.6c0.2,0,0.3,0.1,0.5,0.1C7.2,103.5,7,103.5,6.8,103.6z
		 M80.3,75.8c-0.1-0.3,0-0.7,0.1-0.9c0.9-0.1,0.8-0.9,1.5-1.1c-0.3-1.5,2-0.4,1.4-2c-0.5-0.1-1.3-0.4-1.8-0.1
		c-0.4,0.5-0.1,1.3-0.5,1.8l-1.4-0.1c-0.2,0.5-0.8,0.9-0.9,1.4c-0.6-0.3-1.4-0.4-1-1.3c0-0.4,0.9-1.3,0-1.4
		c-0.9,0.3-1.5,1.8-2.7,1.5c-1.6-0.8,1.4-2.6-1.1-2.5c-0.5,0-1-0.1-1.1,0.4c0.1,0.6-0.5,0.8-0.8,1c-0.6,0.1-1.3-1-2-0.5
		c-0.6,0.3-0.5,0.9-1.3,0.6c-0.3-0.4-0.9-0.4-1.1-0.4c-0.1,0.2-0.1,0.5-0.4,0.5h-0.1c-0.1-0.6,0.4-1.4,0-1.9
		c-1.5,0.2-3.2,1.1-3.5,2.5c0.1,0.6,0.6,0.3,1.3,0.4c0.3,0.8,0.5-0.2,1.1,0.2c1.1,0.2,0.4-0.5,6-1.1c0.1-0.8,0.9-0.3,1.3-0.4
		c0.6,1.6,2.4,0.8,3.5,1.8c0.4,0,0.9-0.1,1,0.4C78,75.5,79.1,75.8,80.3,75.8L80.3,75.8z M90.5,30.1c0.3,0.6,1,0.6,1.5,0.8
		c-0.3-0.9-1.4-1.3-1.5-2.1V30.1z M90.5,38.9c0.3,0.2,0.3,0.2,0.6,0.4c0.1,0,0.5-0.3,0.5-0.6c-0.1-0.1-0.8-0.1-0.9-0.2L90.5,38.9z
		 M4.9,57l-0.1-0.3C4.8,56.8,4.9,56.9,4.9,57l0.3,1.4l0.2-0.1C6.2,57.4,5.2,57.5,4.9,57z M7.5,55.9c-0.1-0.4-0.5-0.1-0.8-0.4
		c-0.4,0.2,0.3,0.6,0,1.1H7C7.3,56.6,7.5,56.2,7.5,55.9z M8.6,52.9c-0.3-0.2-0.4,0-0.5,0c-0.1,0.5,0,0.2,0.2,0.4L8.6,52.9z
		 M14.3,50.1l2.3-0.3c-0.4-0.8-1.5-1.3-2.3-1L14.3,50.1z M16.8,50.6c-0.6,0.1-1.4,0.1-1.9,0.4c0,0.5,0.2,0.9,0.8,1
		C16.1,51.7,17.2,51.8,16.8,50.6z M17.2,46c-0.3-0.5-0.1-1.5-1-1.5c-0.2,0.1-0.1,0.6-0.1,0.9c0.4,0.4,0.6,0.8,1.1,0.9L17.2,46z
		 M15.2,79.3c-0.2-0.6,0.3-1,0.4-1.5c0-0.4-0.4-0.8-0.6-0.9c-0.2,0.5-0.8,1.4-1.4,1.8C13.8,79.8,14.2,79.4,15.2,79.3z M29.7,122.4
		l-0.4,0.3c0,0.2,0,0.8,0.4,0.8C30.2,123.1,30,122.6,29.7,122.4z M31.5,95.3l0.1,0.1v-0.5L31.5,95.3z M29.9,117.5
		c-0.6,0.6-2,1.3-1.3,2.5l0.6-0.6c-0.5-1.6,1.6-1.4,1.9-2.6L29.9,117.5z M27.9,123.8H28v-0.6C27.8,123,27.9,123.9,27.9,123.8z
		 M7.5,98.9h0.4v-0.3L7.5,98.9z M7.5,111.7H7.4v0.5h0.1V111.7z M7.6,102.9c-0.1-0.4-0.5-0.5-0.8-0.1c-0.1,0.4,0.2,0.4,0.5,0.5
		C7.6,103.3,7.4,102.9,7.6,102.9z M10.3,119.2c0.4-1.4-0.9-1.9-0.8-3.2C9.4,117,7.4,117,7.9,118c0.4,0,0.6-0.1,0.9-0.4
		C10.2,116.9,9.7,119,10.3,119.2z M10.4,112.8c-0.3,0.4-0.3,1.1,0,1.5V112.8z M19.9,127.2c-0.1-1.9,0-3.5-0.4-5.4
		c-0.4,0.4,0.1,1.3-0.6,1.6c-0.4,0.1-0.9,0.1-1-0.1C17.9,124.8,18.7,126.3,19.9,127.2z M18.9,117.1c1-0.4-0.1-1.5,0.3-2.3
		c-0.1-0.5-0.8-1-1.4-0.8C17.2,115.2,18.4,116.2,18.9,117.1z M17,120.2c-0.4-0.4-0.3-1.5-1.1-1.3c-0.5,1-0.4,2.4,0.2,3.2
		C15.7,121.2,16.6,120.6,17,120.2L17,120.2z M15,103.1c0,0.4,0.4,0.6,0.6,0.6c0-0.1-0.1-0.5,0.1-0.6c0.4-0.2,0.1-0.5-0.1-0.6
		C15.2,102.6,15.1,102.7,15,103.1L15,103.1z M15,109.5v-0.4l-0.8-0.1C13.9,109.6,14.7,109.5,15,109.5z M13.7,112.4
		c-0.6,0.4,0.4,1.1,0.4,1.1c0.4-0.6,1.1-1,1.1-1.8C14.8,112.2,14.3,112.9,13.7,112.4z M12.9,96.8h0.3v-0.6
		C12.8,96.1,13.1,96.5,12.9,96.8z M11.3,118.5c-0.1,0.8,0,1.5,0.3,2.3l0.4-0.3C12.3,119.9,12.1,118.8,11.3,118.5z M11.4,115.7
		c0.6-0.3,1.1-1.3,1.8-0.5l0.1-0.5l-0.4-0.1C12.6,115.1,10.8,114.4,11.4,115.7L11.4,115.7z M14.3,120.9c-0.3-0.8,0-2.5-1.4-2.8
		L14.3,120.9z M13.9,124.3c0.4,0.4,1.3,0.9,1.8,0.3c0-1-0.9-1.8-1.6-2.4l-0.8,1C13.6,123.6,13.6,124,13.9,124.3z M16,129.9
		c0.7,1.4,2.7,1.8,3.9,2.5c0.3-1.6-1.6-0.9-2.6-1.9c-0.4-1.6-0.9-3.3-1.4-4.8c-0.3-0.9-1.1-0.3-1.5-0.5c-0.5,0.3-0.1,0.8-0.1,1.1
		C15.2,127.8,15.1,128.4,16,129.9z M19.9,129.8c0.1-0.1,0.2-0.2,0.2-0.2c0,0-0.1,0-0.1-0.2c-0.9-1.4-1.4-3-3-3.7
		c-0.1,1.3,0.9,2.5,0.9,3.9C18.5,130.3,19,129.5,19.9,129.8z M20.1,129.6C20.1,129.5,20.1,129.5,20.1,129.6z M20.4,143
		c-0.8-0.2-1.6,0.4-2.5,0.5c-0.5,1.6-1.9,2.3-2.5,3.5c0,0.1,0.2,0,0.4,0C16.2,144.7,19.5,145.2,20.4,143z M26.3,123.5l-0.4,0.5
		c0.5,1.8-1.3,2.5-1.5,4c0.3,0.4,0.6,0.6,1,0.4c0.2-0.8,1.1-0.9,1.3-1.4c-0.4-0.9,0.3-1.9,0.5-2.5C27,124,26.8,123.5,26.3,123.5
		L26.3,123.5z M25.5,112.8l-0.4,0.6h0.3C25.4,113.2,26,112.9,25.5,112.8z M25,109.1l0.5-0.2c0-0.1,0.1-0.5-0.1-0.4L25,109.1z
		 M26,115.3c1,2-1.6,1.6-1.5,3.3c1.8,1.5,0.3-2.1,2.3-1.6c-0.1-0.7-0.3-1.4-0.5-2L26,115.3z M25.4,121c-1.1,0.2-1,1.6-1.4,2.5
		c-1.4,0.8-1.6,2.5-2,3.8l0.6-0.3c-0.4-1.6,2.1-2.1,2.6-3.3c-0.1-0.6-0.6-1.5,0.3-1.8c0.1-0.8,0.6-1.6,0.1-2.3
		C25,119.7,25.4,120.6,25.4,121L25.4,121z M24.1,117.1h-0.2v0.5c0-0.1,0.1-0.1,0.2-0.1V117.1z M24.4,103.5
		C24.4,103.5,24.4,103.5,24.4,103.5L24.4,103.5C24.4,103.6,24.5,103.5,24.4,103.5l0.8,0.1v-0.4C25.3,103.4,24.5,103.5,24.4,103.5
		L24.4,103.5z M24.4,103.6C24.4,103.6,24.4,103.6,24.4,103.6l0,0.1C24.4,103.6,24.4,103.6,24.4,103.6L24.4,103.6c-0.1,0,0,0.1,0,0.1
		l-0.2,0.4C24.3,104,24.4,104,24.4,103.6L24.4,103.6L24.4,103.6L24.4,103.6z M24.4,103.7L24.4,103.7
		C24.4,103.7,24.4,103.7,24.4,103.7z M24.4,103.7L24.4,103.7C24.4,103.7,24.4,103.7,24.4,103.7C24.4,103.7,24.4,103.7,24.4,103.7z
		 M24.4,103.5c0-0.5,0-1.7,0-1.8C24.4,101.7,24.4,103,24.4,103.5C24.4,103.5,24.4,103.5,24.4,103.5z M24.2,104.3l0.1-0.2
		C24.2,104.1,24.2,104.2,24.2,104.3z M22.8,110c0.1,0,0.1-0.1,0.3-0.1c0-0.4,1.3-1.1,0.8-1.5C23.2,108.7,22.9,109.9,22.8,110
		L22.8,110z M22.9,103.6c0,0,0.1-0.1,0.3,0c-0.1-0.5,0.1-1.3-0.3-1.3C22.2,102.7,22.9,103.4,22.9,103.6z M22.2,104.5
		c0.5,0.4-0.9,1.7-0.7,2.4c0.6-0.6,1-2,0.9-2.6L22.2,104.5z M21,111.4c1.3-0.1,0.5-2.1,0.8-3.3c-0.5-0.3-1.1,0.1-1,0.8
		C22.4,109.8,19.9,110.4,21,111.4z M22.7,123.1c0.8-1.5-0.5-0.3-1.1-1c-0.1,0.8-0.2,1.9,0.1,2.3C22.3,124.3,22,123.5,22.7,123.1z
		 M22.3,133.8c0.1-1.8,0.4-2.2,0.4-3.9h-0.3C22.7,131.8,21.5,132.1,22.3,133.8L22.3,133.8z M83,81c-0.4-0.1-0.6,0.1-0.6,0.4
		c1.3,0.2,0.5,2,1.8,2.1c0.3-0.1,0.1-0.3,0.3-0.4L83,81L83,81z M78.4,87.8c0-0.5-0.3-0.8-0.6-0.6c-0.1,0.5,0.1,1.1,0.4,1.3
		L78.4,87.8z M77.5,79.5c0.6,0.9,1.1,1.8,2,2.1c0.3-0.1,0.9,0,0.8-0.5C79.2,81.3,78.8,79.8,77.5,79.5L77.5,79.5z M73.2,80h0.1
		c0.1-0.3,0.4-0.3,0.5-0.6c-0.4-0.3-0.1-0.1-0.5-0.4C73.1,79.3,73,79.7,73.2,80z M76.1,79.5c-0.2,0.5-0.4,1.1-0.2,1.8l1,0.1v-0.3
		C76.7,80.8,76.5,79.6,76.1,79.5z M75.8,83c-0.3,0.1-0.6,0.1-0.8,0.5c0.1,0.1,0.3,0.1,0.3,0.2c0.8-0.1,0.9,1,1.6,0.8v-0.2
		C76.7,83.7,76.5,82.9,75.8,83z M74.3,78.9h0.1v-0.4h-0.1V78.9z M71.7,76.9c-0.4,0.6,0.6,1.1,0.8,1.4l0.4-0.8
		C72.7,76.7,72.4,76.7,71.7,76.9L71.7,76.9z M67.5,79c0,0.4-0.1,0.8,0.2,1L67.5,79z M67.4,78.9l0,0.1C67.5,79,67.4,78.9,67.4,78.9z
		 M86.9,42.8c-0.4,0.4-1,0.6-1.6,0.5c-0.5,0.4-1.4,0.6-1.3,1.4c0.6,0,1-0.9,1.8-0.6c0.8,0.2,0.9,0.9,0.6,1.6
		c0.3,0.4,0.6,0.8,1.3,0.6c0-0.8,0.3-1.4,0.9-1.8c0.9-0.1,1.1,1.4,1.6,0.2c0.4-0.2,0.4-0.9,0-1.3c-0.6,0.3-0.8,0.3-1.6,0.4
		C87.4,44.3,87.5,42.9,86.9,42.8z M84.7,29.8c-0.4,0.1-0.5,0.5-0.4,0.9l0.8,0.1C85.2,30.3,84.8,30.2,84.7,29.8L84.7,29.8z
		 M83.3,52.9c0.4,0,0.4,0.1,0.6,0.1l0.2-0.8l-0.9-0.1V52.9z M83.3,59l0.4,0.1c0.5-0.3,0.4-0.6,0.6-1.1c-0.1-0.1,0-0.4-0.4-0.3
		C83.7,58.1,83.1,58.3,83.3,59L83.3,59z M79.7,34.2c-0.1,0.4-0.4,1,0,1.4c0.5,0.1,1.1,0.5,1.6,0.4c0-0.5-0.1-0.8-0.2-1.1
		c0.1-0.8,1-0.1,1.3-0.5c0.1-0.3-0.2-0.4-0.2-0.5C81.2,33.6,80.4,33.5,79.7,34.2z M80.6,49c0.3-0.4,0.4-1.9-0.4-1
		c-0.3,0.1-0.3,0.9,0,1.1L80.6,49z M79.5,51.9c0.1-0.1,0.3-0.2,0.2-0.4L79.5,51.9z M79.4,52.2l0.1-0.2C79.5,52,79.4,52.1,79.4,52.2z
		 M79.5,21.1c-0.5,0.1-0.5,0.1-0.4,0.6l1.3,0.2v-0.9C80.4,21.1,79.5,21.1,79.5,21.1z M78.9,30.5c0.1,0.4,0.3,0.8,0.8,0.9
		c0.8-0.4,2-0.4,2-1.5l0.1-1C80.8,28.6,79.8,30,78.9,30.5z M76.3,46.9c0.8,0.4,1-0.1,1.4-0.8L76.3,46.9z M76.9,30
		c-0.8-0.4-2.8-0.1-2-1.8c-1-0.1-1.1,0.9-1.3,1.6c0,0.3,0.4,0.3,0.5,0.4c0.3,0.4-0.1,0.8-0.1,1.3l0.4-0.3c0.2-1.1,1.5-0.9,2.5-0.9
		L76.9,30L76.9,30z M72.7,46.4c0.1,0.4-0.2,1.1,0.3,1.3l0.5-0.5C74.1,46.5,73.1,45.6,72.7,46.4z M74.7,21.6c0.4-0.1,1.4,0.4,1.3-0.5
		c-0.5-0.8-1.4-1.4-2.4-1.6C73.4,20.2,74.6,20.6,74.7,21.6L74.7,21.6z M72.3,17.2h0.8v-0.4h-0.8V17.2z M71,30.8h0.1
		c0.4-1.3,2.3-1.3,2.4-2.8C71.5,26.2,71.5,29.6,71,30.8z M69.5,45.3l0.2-0.1V45L69.5,45.3z M69.1,17.8c0,0.3,0.1,0.3,0.3,0.5
		c0.2-0.4,1.1-0.4,1.4-0.9c-0.1-0.4-0.5-1-0.9-1.1C69.2,16.6,70.1,17.7,69.1,17.8L69.1,17.8z M68.8,27.9c-0.1,0.1,0,0.2,0.1,0.3
		L68.8,27.9z M68.9,28.2l0.1,0.2C69,28.3,68.9,28.3,68.9,28.2z M67.7,21.3c0.3-0.1,0.8-0.8,0.9-1.1c-0.3-0.4-0.1-1-0.8-0.9
		C67.3,19.7,68.1,20.5,67.7,21.3z M67.7,45.7c-1.3,0.6-2,1.6-2.4,2.9l0.5-0.5C66.3,47.2,67.3,46.9,67.7,45.7z M67.3,44.8
		c0.1-0.4-0.1-0.8-0.4-0.9c-0.1,0.6-0.5,1.3-0.4,1.8C66.7,45.6,67.3,45.2,67.3,44.8L67.3,44.8z M65.5,37.7c-0.6,0.5-0.6,1.5-0.4,2.3
		c0.6-0.4,1.7-0.8,1.7-1.8L66,38.3C65.8,38.2,65.7,37.8,65.5,37.7z M65.1,45.2c-0.8,0.4-1.5-0.3-1.9-0.8c-0.5,0.6-0.5,1.9-0.5,2.5
		l0.8-0.6c0.9,0.3-0.3,0.9,0.1,1.4C64.2,47.2,65.3,46.4,65.1,45.2z M64,48.6c-0.4,0.1-1,0.4-0.8,1L64,48.6z M63.5,39.2
		c-0.5,0.3-0.3,1.2-0.3,1.6h0.5C64.2,40.6,63.8,39.5,63.5,39.2z M63.6,31.6l0.9,0.1c0.2-0.2,0.3-0.4,0.3-0.6
		c-0.3-0.4-0.4-0.5-0.8-0.6C63.9,30.8,63.5,31.1,63.6,31.6z M65.1,26.8c-0.9,1.4-3.1,0-3.7,1.9c-0.1,0.5,0.3,0.6,0.5,0.6
		c0.6-0.8,1.1,0.4,1.9,0c-0.2-1.1,1-0.8,1.6-1.3C65.8,27.4,65.3,27.2,65.1,26.8z M58.2,73.2c0.9,0.4,1.1-1,2-1.3
		c0.6-1.8,3-2.6,2.9-4.9c-1,1-1.9,2.4-3.2,3.3C59.9,71.6,58.3,72,58.2,73.2z M58.6,69.8c-1-0.9-1.4,0.8-1.5,1.4L58.6,69.8z
		 M59.7,68.6c0.3-0.3,0.8-0.3,0.7-0.9L59.7,68.6z M59.4,69.1l0.3-0.4C59.5,68.7,59.4,68.9,59.4,69.1z M62.3,43.3
		c-0.5,0.1-0.9-0.3-1.3-0.3c-0.5,0.6-0.8,1.6-0.4,2.5C61.1,45,62.5,44.7,62.3,43.3z M61.2,40.9c0,0.4,0.3,0.2,0.4,0.4
		c0.6,0,0.6-0.5,0.8-1c0-0.4-0.6-0.4-1-0.4L61.2,40.9z M61.1,8.1c0.1,0.5,0.8,0.4,0.9,0.1c-0.1-0.4-0.1-0.8-0.8-0.8L61.1,8.1z
		 M60.7,11.7l0.9,0.9c0.5,0.4,0.8,0.1,1.3-0.1C62.8,11.4,61.5,12.3,60.7,11.7z M60.6,26.7c-0.5,0.6-1.4,1.1-0.9,2.2h0.5
		c0.4-0.5,0.6-1.1,0.8-1.6C61,26.9,60.7,26.7,60.6,26.7L60.6,26.7z M59.6,46c0,0,0,0.1-0.1,0.1C59.5,46.1,59.6,46,59.6,46z M59.6,46
		c0.1-0.2,0.1-0.6,0.2-0.9C58.9,44.7,59.6,45.6,59.6,46L59.6,46z M59.5,50.4c-0.1,0.6-0.5,1.3-0.4,2.2c0-0.3,0-0.5,0.1-0.6l0.1,0.1
		C59.4,51.5,59.6,51,59.5,50.4L59.5,50.4z M59,53.8c0,0.1-0.1,0.1-0.1,0.2c-0.1-0.1-0.1-0.3-0.1-0.4l-0.1,1.6
		C59.2,55,58.9,54.3,59,53.8z M59,53.8c0-0.1,0-0.1,0-0.2C59,53.6,59,53.7,59,53.8z M58.7,49.6c-0.6-0.5-0.5,0.6-0.5,1.3L58.7,49.6z
		 M57.3,50.9L57,51.4c-0.4,0.9-0.6,2.1,0.5,2.5l0.3-0.5C57.1,52.7,57.8,51.4,57.3,50.9L57.3,50.9z M56.7,27.2l0.3,0.4
		c0.5,0,1,0.5,1.4,0c0.1-0.5-0.1-0.8-0.6-0.8C57.5,26.9,57,26.9,56.7,27.2z M57,40.6c-0.6,0.5-1.3-0.1-1.6-0.4
		c-0.4,1.1,0,2.5-0.1,3.8h0.3C56.6,43.2,57.2,41.8,57,40.6z M55.8,38.9c0-0.4,0.3-1-0.1-1.3c-0.2,0.1-0.4,0.8-0.4,1.3
		C55.6,39.3,55.4,38.8,55.8,38.9z M55.6,5.5l0.3,0.4l0.6-0.5c0-0.2-0.3-0.2-0.4-0.4L55.6,5.5z M53.2,27.6c0.8,1.5,1.4-1,2.6-0.4
		v-0.2c-0.9,0.2-1.3-0.8-1.6-1C54.2,26.8,53.6,27.1,53.2,27.6z M54.2,38.8c-0.1,0.2-0.1,0.9,0.2,1L54.2,38.8z M52.2,92.4v0.1
		l0.2-1.1c-0.4,0.1-0.1,0.9-0.4,1H52.2z M52.5,78.5c-0.9,0.8-0.4,1.9-0.5,3.2h0.1C52,80.4,53.3,79.3,52.5,78.5z M53.2,75.1
		c0-0.5-0.1-1.3-0.6-1.1c-0.4,0.1-0.3,0.8-0.1,1L53.2,75.1z M53.3,56.9c0.2-0.4,0.2-0.9,0-1.5C53.3,55.9,53.3,56.4,53.3,56.9
		c-0.4,1-1.5,1.6-2,2.5c-0.9,0.6-1.3-0.5-1.8-1c-0.1-1-1.1-1.9-1.6-2.7c-0.2-1,0.4-1.8,1.1-1.5c-2.1-1.5-0.8,1.4-1.4,2.3
		c-0.3,0.7-1,0.2-1.3,0c0,0,0-0.1-0.1-0.1v0.1c0,0,0,0,0.1,0c0.2,0.3,0.2,0.7,0.4,1c0.9-0.5,1.1,0.1,1.9,0.4c0.6,1.8,2.4,2.2,2.1,4
		c0.9-0.5,1-1.6,1.4-2.4C53.2,59,53.3,57.9,53.3,56.9L53.3,56.9z M46.2,56.5L46.2,56.5C46.2,56.4,46.2,56.4,46.2,56.5L46.2,56.5z
		 M50.7,67.9l0.5-0.5c-0.1-0.3,0.1-0.9-0.2-0.6C51,67.2,50.1,67.7,50.7,67.9L50.7,67.9z M51.3,62.4h-0.5v0.5L51.3,62.4z M45.1,73
		c0,1-0.4,2,0.1,2.8c0.4,0.1,0.8,0.5,1.4,0.3c0.2-0.4,0.6-0.5,0.5-1.1c-1-0.4-1.1-1.5-1.3-2.3C45.9,72.5,45.2,72.7,45.1,73L45.1,73z
		 M45.5,68.1c0.1-0.6-0.2-1-0.4-1.3L45.5,68.1z M45.9,49.3c-0.3-0.8,0.5-1,0.2-1.5L45.7,48C45.4,48.5,45.6,49.1,45.9,49.3z
		 M46.6,51.8c0,0,0-0.1,0-0.1L46.6,51.8z M46.6,51.7l-0.5-1.4C45.9,51,46.4,51.2,46.6,51.7L46.6,51.7z M48.4,42.2
		c0-0.4,0.1-0.6-0.1-0.6c-0.3,0.3-0.6,0.1-0.6,0.6C47.9,42.6,48.1,42.2,48.4,42.2L48.4,42.2z M50.6,39c-0.1,0.4-0.4,0.9,0,1.1V39z
		 M50.6,42.7c-0.3,0.4,0.1,0.8,0.3,0.8L50.6,42.7z M53.2,49.1c-0.8-0.5-0.8-2-1.5-2.3c-0.4,0.5-0.1,1.4,0.3,1.9
		c0.3,0.1,0.8,1,1.3,0.6L53.2,49.1z M52.2,51.8c0-0.6-0.1-1.3-0.8-1.4c-0.1,0.5-0.3,1.3,0.1,1.8h0.2C52,52.2,52.4,52.2,52.2,51.8z
		 M53.6,73.1c0.1-0.5,0.6-0.8,0.3-1.4L53.6,72C53.3,72.2,52.9,72.8,53.6,73.1z M52.9,33c0.1-0.5,0-0.5-0.4-0.5
		c-0.3,0.1-0.4,0.4-0.1,0.6L52.9,33z M52,5.9c0.2,0,0.6-0.1,0.8-0.4L52,4.9L52,5.9z M50.7,32.7c0.1,0.4,0.4,0.4,0.6,0.6
		c0.5-1,1.4-2,0.8-3.4C51.2,30.5,51.3,32,50.7,32.7L50.7,32.7z M50.4,31.6l0.4-1.1c-0.1-0.2-0.4,0.4-0.5,0.4
		C50.3,31.1,50,31.6,50.4,31.6z M50.3,46.7l0.1,0.6v-0.6H50.3z M50,50.4c-0.1,0.4-0.3,0-0.1,0.5c-0.1,0.3,0.4,0.5,0.5,0.4
		C50.5,50.8,50.3,50.4,50,50.4z M49.5,43.6c-0.1-0.6-0.8-0.1-1.3,0c-0.3,0.5,0.2,0.5,0.6,0.8C49.1,44.2,49.6,44.1,49.5,43.6
		L49.5,43.6z M47.1,7.3c-0.1,0.6,0.5,0.3,0.8,0.9c0.4,0,0.5-0.3,0.8-0.4C48.4,7.3,47.7,7.3,47.1,7.3z M46.1,33.4
		c-0.2,0.5-0.2,0.9,0,1.4c0.4,0,0.6-0.1,1-0.3c0.9-0.2,0.5,0.8,1.1,1.1c1.8-0.3-0.4-1.6,0.4-2.8c-0.4,0.1-0.8-0.2-0.9-0.4
		C47.5,33.1,46.6,33.2,46.1,33.4L46.1,33.4z M45.1,26.4c-0.5,0.9,0.9,1.4,0.3,2.1h0.5c-0.4-1,0.6-1.1,0.5-2
		C46.1,26.3,45.6,26.6,45.1,26.4z M45,50.4c0-1.6-2.3-1.4-1.9-3.3c-0.5,0.4,0.3,1,0.1,1.8c0.9,0.9,0.8,2.5,1.9,2.8L45,50.4z
		 M44.2,67.9v0.4h0.1v-0.4H44.2z M42.5,36.6c0.4-0.1,0.8-0.4,0.6-0.9l-0.2-1.3c-1-0.5-0.5,0.8-1.1,1C41.1,36.1,42,36.5,42.5,36.6z
		 M44.7,34c-0.4,0.6-1.9,0.5-1,1.6c0.5,0.4,0.8-0.1,1-0.4C45,34.9,45.1,34.2,44.7,34L44.7,34z M42.5,6.2c0.5,0.1,1.1,0.1,1.6-0.1
		c0.1-0.1,0.4-1-0.2-0.9C43.3,5.5,42.1,5.5,42.5,6.2z M42.5,27.9c-0.1-0.6-0.6-0.9-1.1-1c0,0.6,0.2,1.6,0.9,1.6
		C42.2,28.6,42.5,27.9,42.5,27.9z M40.4,27.1l0.4-0.3h-0.4V27.1z M40.8,43.5c-0.2,0-0.5,0.2-0.4,0.5c0,0.4,0.5,0.2,0.8,0.2
		C41.2,43.8,41.2,43.6,40.8,43.5z M40.2,48h1.1c0-0.6-0.5-1-0.9-1.1C40.3,47.2,40.2,47.5,40.2,48L40.2,48z M42.2,75.4
		c-0.9,0.1-1.6,1.3-1.6,2.4c0.4,0.5,0.5,1.4,1.1,1.3C42.7,78.2,42.1,76.8,42.2,75.4L42.2,75.4z M41.7,60.5c0.6-0.5,0.5-2,0.5-3
		c-0.2-0.5-1.1-0.6-0.9-1.5l-0.1,0.1C41.6,57.5,41.3,59.2,41.7,60.5z M38,44.5l0.8,3.8c0.9-0.6,1.1-1.9,1.1-3.3
		C39.5,44.3,38.7,44.6,38,44.5L38,44.5z M35.1,50.9c0.6-0.2,1.1,0.4,1.6,0c0.2-0.9-0.6-1-0.9-1.9c-0.5-0.4-0.9,0-1.1,0.5
		C34.6,50,35,50.4,35.1,50.9L35.1,50.9z M34.6,45.7C34.6,45.7,34.6,45.8,34.6,45.7L34.6,45.7z M34.6,45.8l0.1,0.7
		C35.2,46.5,34.7,46.1,34.6,45.8L34.6,45.8z M35.9,21.6c-0.4,0.6-1.1,0.4-1.6,0.3V22c0.1,1.1-0.9,0.5-1.5,0.6v0.5
		c1,1.3,2.1-0.1,3.3-0.5C36.5,22.4,35.9,21.9,35.9,21.6z M31.7,25.4c-0.3,1.1,1.1,0,1.4,0.4v-0.4C33,24.4,32.2,25.4,31.7,25.4
		L31.7,25.4z M31.1,15c1,0.6-0.8,2.8,1.1,2.4c1-0.2,2-0.6,2.9-1c-0.5-1.8-1.9,0-3-0.1c-1.3-0.3,0-1.1-0.3-1.6
		C31.6,14.4,30.8,14.4,31.1,15L31.1,15z M30.6,34.9h0.1v-0.5h-0.1L30.6,34.9z M29.6,39.9c1,0.3,1.6,1.4,2.7,0.6
		c1.1-0.6-0.1-1.5-0.1-2.4c-1.8,0.3-1.4-2-2.3-2.6l-0.4,0.8c0,0.8,0.6,0.9,1,1.5C31.1,39,28.8,38.7,29.6,39.9z M27.9,49.6V50
		c0.5-0.5,1.3,0.4,1.8,0.8c0.1-0.1,0.4-0.4,0.5-0.6c0.8-1.1-1.1-1.8-1.1-0.5C28.8,49.9,28.2,49.9,27.9,49.6L27.9,49.6z M23.2,36.6
		c-0.3,0.8-1,1.3-1.4,1.6c0.5,0.3,1.1,0,1.8,0c0.5-0.6,1.3-0.8,1.5-1.4c0.3-0.3,0.9-0.3,1.3,0c0.3,0.2,0.1,0.8,0,1
		c-1.1,0-0.9,1.1-1.6,1.8c0.9,0.1,1.6-1,2.6-1.4c0.4,0,0.6,0.6,1.1,0.3c0.1-0.5-0.5-0.6-0.6-0.9c0-1.3-1.9-1-1.3-2.6
		C25,34.9,25.3,37.8,23.2,36.6z M26.9,50.3c-0.3-0.3-0.1-0.6-0.5-0.6c-0.1,0.3-0.4,0.5-0.5,0.9c0.1,0.4,0.1,1.5,0.9,1L26.9,50.3z
		 M26.3,58.5c-0.3,0.4-0.5,1-0.3,1.5h0.8v-0.3C26.9,59.2,26.7,58.6,26.3,58.5L26.3,58.5z M25.5,52.9c0,0,0-0.1,0.1,0l-0.4-1.5
		c-0.1-1.1-1.3-0.9-2.1-1.1c-0.4,0.2-0.4,0.5-0.5,1c0.8,0.1,1.6,0.2,2.3,0.6C24.9,52.4,25.4,52.8,25.5,52.9L25.5,52.9z M24.8,56.5
		c0.2-0.3,0.2-1,0-1.3c-0.5,0-0.9,0.4-0.8,0.9C24.3,56.4,24.5,56.4,24.8,56.5L24.8,56.5z M19,40.2l-0.4-0.3l0.2,0.9L19,40.2z
		 M20.2,38.5c-0.1,0-1.1-0.1-0.6,0.4L20.2,38.5z M21.5,35.6c-0.2-0.3-1-0.1-1.1-0.6c-0.3-0.4-0.9-0.1-1.3-0.3
		c0.2,1.1,1.5,1.5,2.3,1.6L21.5,35.6z M24,73.7c0.2-0.4,0-0.8,0-1.1c-0.8-0.8-1.8,0.1-2.5-0.6c-0.1,0.8,0,1.9-1.1,1.6
		c-0.4,0.2,0,1,0,1.1c0.4-0.5,1.1-0.4,1.4-0.6C22.4,74.2,23.7,74.7,24,73.7z M25.3,68.3c0.1-0.3,0.5-0.3,0.4-0.6h-0.5
		C24.9,67.9,25.2,68.6,25.3,68.3L25.3,68.3z M26.8,65.8c0.4-0.4,1.3-0.6,0.9-1.5c-0.9,0.1-1.9,0.2-2.8,0.2c0,0.6-0.9,0.6-1.3,1
		c-0.1,0.1,0,0.8,0.3,0.5C24.7,64.9,25.8,66.2,26.8,65.8z M29.7,72.2c0-0.5-0.6-0.6-1.1-0.8V72c0.1,0.1,0.2,0.8,0.6,0.6
		C29.6,72.7,29.6,72.3,29.7,72.2z M31.4,77.8c-0.2-0.4-0.8-0.5-1.1-0.6c-0.8,0.9-0.8,2.4-0.6,3.7c0.3,0.1,0.5-0.1,0.6-0.1
		C30.1,79.4,31.2,78.8,31.4,77.8z M31.2,64c-0.1-0.1-0.2-0.1-0.2-0.2c0.1,0.4-0.1,0.5-0.4,0.7c0.1,0.3-0.1,0.6,0.3,0.6
		C31.7,65.4,31.2,64.5,31.2,64z M31,63.8c-0.1-0.4,0.6-0.9,0.5-1.4c0-0.5-0.5-0.4-0.9-0.8c-0.4-0.9-1.9-0.8-2.9-0.9
		c-0.1,1.1-1.3,1-2.1,1c0.4,2,2.4-0.9,3,1l1-0.9C31.1,61.6,30.3,63.5,31,63.8z M33.1,79.2L33.1,79.2L33.1,79.2
		C33.1,79.2,33.1,79.2,33.1,79.2z M33,73.2l-0.3,0.1c0,0.6,0.1,1.1,0.4,1.5C33.6,74.4,33,73.9,33,73.2z M33.4,43.6
		c0.2-0.2,0.9,0.1,0.9-0.5c-0.1-0.2-0.8-0.4-1.1-0.2C32.7,43.1,33.1,43.5,33.4,43.6z M35.9,61.9c-0.4,2.8,2.9,2.6,3.7,4.2l0.9-1.1
		c-0.5-2.1,0.4-4.3-0.8-5.9c0.8,1.4,0.2,3.7-0.4,5c-0.5,0.5-0.9-0.3-1.6,0c-1-0.6-1.5-1.8-1.8-2.8c-0.5-0.1-1.5-0.4-1.6-0.1
		L35.9,61.9z M39.5,68.4l-0.2,0.5c-0.1,0.6,0.2,1.1,0.6,1.4c0.1-0.4,0.6-0.4,0.5-0.9c-0.3-0.1-0.5,0-0.8,0.1c-0.5-0.4,0.2-0.6,0-1
		C39.6,68.6,39.5,68.5,39.5,68.4z M39.5,68.4l0-0.1C39.5,68.3,39.5,68.4,39.5,68.4z M39.7,67.8l0.1-0.3c0.1,0,0.1,0,0.1-0.2
		l-0.1,0.2C39.7,67.5,39.6,67.4,39.7,67.8z M34.4,69.1c0,0.1,0.1,0.1,0.1,0.2L34.4,69.1z M34.5,69.2l0.5,1
		C35.1,69.8,34.7,69.5,34.5,69.2L34.5,69.2z M35.3,70.3h-0.1v0.5h0.1V70.3z M36.8,78.3c-0.2-0.8-0.2-1.6-0.4-2.4
		c-0.1-0.2-0.5-0.2-0.8,0C35.3,76.9,36.5,77.9,36.8,78.3z M42.5,86.6c0.4-3.3-1.1-6.1-2.5-8.8c0.1-1.6,0.3-3.4,0.5-5.1
		c-0.4-0.5-1-0.5-1.3-0.8c-2-2,0.1,0.9-1.3,1.4l0.8,0.6c0.5,1.6-2.1,1.3-1,3.2c0,0.6,3.8,7.9,3.5,7.4C41.3,85.5,41.8,86.4,42.5,86.6
		z M42.8,63c-0.1-0.4-0.4-0.9-0.8-0.8c-0.1,0.5,0.4,1,0.4,1.1L42.8,63z M42.6,50.5c0.2,0.3,0.2,0.9,0.8,0.8
		c-0.4-0.4,0.1-1.4-0.5-1.4L42.6,50.5z M46.4,90.8c0.4-1.1,0.2-2.4,0.1-3.5c-0.5-3.9,1.1-9.2-2.4-11.6c-0.1-1.4,0.5-2.5,0.4-3.9
		c0-0.5-0.3-1.5-1-1.3c-0.3,0.1-0.3,0.6,0,0.9c-0.4,2.3-0.4,4.5-0.3,6.9c1.1,2.1,2,4.4,2,7.1C45.9,87.1,45.7,89.4,46.4,90.8z
		 M45.7,108c1.1-0.6,1-2,1-3.2c0.1,0,0-0.3,0-0.4c0,0.1,0,0.3,0,0.4h0c-0.1,0-0.1,0-0.1-0.1c0.1,0.6-0.2,1-0.5,1.4
		c-0.4-0.4-0.2-0.9-0.4-1.3c0.9-0.8,0.1-3.2,1.9-2.9c-0.1-0.9,0.5-1.5,0.1-2.3c0-0.5,0.6-0.5,0.9-0.5c-0.1-0.5,0.1-1-0.4-1.1
		c-0.3-0.4-0.3-1,0-1.3c-0.1-0.3-0.1-0.8-0.4-0.6l-0.2,1.3c-0.5,0-0.4-0.9-0.6-1.3l0,2.3c1.1,1.6-0.5,2.8-0.9,4.3
		c-0.5,0.9-0.2,1.6-0.8,2.4C45.2,105.5,45.7,108,45.7,108z M46.6,104.6c0,0.1,0,0.1,0,0.2C46.6,104.8,46.6,104.7,46.6,104.6z
		 M46.2,134.6c0.1-0.8,0.6-1.1,0.4-1.4c-0.5-0.3,0-0.8,0.3-1c-0.5-1.5,1.1-2.9-0.3-4.2c-0.1-2,1.2-2.4,0.8-4.4c0.5-2.8,0.3-6.7,0-10
		c-0.2-0.4-0.4-0.8-0.5-1.2c0-0.4-0.1-0.8-0.3-1.2c0.1,0.4,0.2,0.8,0.3,1.2c0,1.4-0.7,2.8-0.1,4.2c-0.1,4.8-0.3,6.7-0.4,11.5
		l-0.1,1.4c-0.1,2.9-0.3,6.1-2.2,7c-4.6,2.2-3.6-1-7.4,0.2c-3.8,1.2-2.7,1.8-5.5,3.1c0.8-0.4,1.8-0.2,2.4-0.9
		c0.8,0.6-7.4,5.2-6.6,5.6c0.5,0,1.9-0.8,3.7-2.2c0.4-0.3,0.8-0.7,1.3-1.1c2.4-2.2,2.9-2.2,2.9-2.2s-0.5-1.5,2.1-1.9s5.8,2,8.1-0.4
		C45.4,135.1,44.8,135.7,46.2,134.6z M31.1,139.9L31.1,139.9L31.1,139.9z M50.3,74.1c0.2-0.8,0.8-1.1,1.3-1.5h-0.9
		c-0.5-0.4-0.1-1.3-0.3-1.9c0-0.5,0.9-1.5,0-1.9c-0.5,0.5-0.5,1.4-0.8,2.1c0.4,1.8-0.9,2.4-1.3,3.9c0.4-0.1,0.5-1.4,1.3-0.9
		c0,0.5-0.6,1-0.2,1.3C49.6,75,50,74.5,50.3,74.1L50.3,74.1z M53.2,89.9c0.6-0.4,0.6,0.5,1,0.3c-0.3-1.3-0.3-3.2-1.4-4
		c-0.6-0.4,0.4-0.8,0.1-1.3c1.3-0.6-0.1-1.6,0.3-2.6c-0.3,0.4-0.4,1-0.6,1.4c-0.5,1.8-0.4,3.6-0.4,5.5c0.2-0.2,0.3-0.7,0.7-0.6
		C53.3,88.7,53,89.4,53.2,89.9L53.2,89.9z M52.2,89.1c0,0.5,0,0.9,0,1.4h0.1L52.2,89.1L52.2,89.1z M52.2,89.1L52.2,89.1
		C52.2,89.1,52.2,89.1,52.2,89.1L52.2,89.1z M54.2,49.6c-0.5,1.3,0.6,1.8,1.5,2.3c0.1,0,0.4-0.6,0.8-0.8c0.8-2.2-1.4,0.2-1.9-1.4
		c-0.1-0.9,0.5-1.3,0.6-2.1C54.4,47.9,54.7,49.1,54.2,49.6z M55.3,70.1c1-0.4,1.1-1.8,2.4-2.1c1-2.1,1.5-4.5,2.3-6.7
		c0.2-0.7-0.2-1.5-0.2-2c0.1,1.7-0.9,2.8-1,4.3c-0.9,1.4-1,2.5-2,3.7c-0.3,0.1-0.9,0.1-0.8-0.4c0.6-1.1,0.5-2.5,0.8-3.9
		c-0.1-2.1,1-3.9,1.1-6.2c-0.2,0.8-0.6,0-1.1,0c0,0,0-0.1-0.1-0.1c-0.2-0.5-0.4-1-0.7-1.5c-0.3-0.6-0.6-1.2-1.1-1.5
		c-0.8,0.5,0.5,0.6,0.6,0.9c0.2,0.2,0.3,0.4,0.5,0.7c0.2,0.5,0.5,1,0.7,1.5c1.2,3.7-1.3,8-1.4,12l0.5,0.4
		C55.6,69.3,54.8,69.7,55.3,70.1z M58.1,76.3c1.1,0.6,2.5-1.1,3.2,0.2l-0.6,0.9l0.8,0.6c0.3-0.5,1.3-0.4,0.9-1.4
		c-0.8-0.8-0.6-2.3-2.3-2.2c-1.1,0.8-3.5,0.1-3.4,2.3C57,77.3,57.5,76.3,58.1,76.3z M61,78.6c-0.3,0.2-0.3,0.1,0,0.5l0.3-0.4
		L61,78.6z M66.4,82.3c0.5-0.2,1.4,0.1,1.4-0.6c-0.4-0.4,0-1.1-0.8-0.9c-0.9-1.8-2.7,0.1-3.8-0.9c-0.5,0.7,0.4,0.9,0.9,0.9
		C64.3,82.7,65.8,81,66.4,82.3z M66,76.4c-1.3-0.7-2.3-2-3.8-1.8c0.5,1.5,1.3,3.3,2,4.8l0.6,0.1c0.8-0.2,1.4,0.5,1.9,0.4
		c0.5-2.1-1.5-0.3-2.3-1.4c-1-1.5,1.4-0.9,1.6-1.8C66.2,76.6,65.9,76.5,66,76.4z M64,71.3h-0.1c-0.8,0.8-2.3,0.3-2.5,1.1
		c0.5-0.1,0.9,0.5,1.4,0.5C63.1,72.5,64.2,72.2,64,71.3z M62.4,71.1c0.9-0.4,2.3-0.5,2.5-1.7c0.1-0.5-0.5-0.4-0.8-0.6
		C63.4,69.4,62.6,70.1,62.4,71.1L62.4,71.1z M63.9,66.1c0.1-0.3,0.6-0.7,0.1-1L63.9,66.1z M63.9,66.2L63.9,66.2
		C63.9,66.1,63.9,66.2,63.9,66.2z M62.9,66.2c-0.1-1.9,1.3-2.9,2-4.4c-1,1-2.5,1.6-2.1,3.7c-0.1,0.8-1.3,1.4-1,2.1
		C61.8,67.6,62.9,66.2,62.9,66.2z M66.9,70.3c0.4-0.3,1-0.4,0.8-1c-0.6,0.1-1.8,0.1-1.8,1H66.9z M66.7,65.7
		c-0.1-0.3,0.5-0.8,0.1-1.1l-0.3,0.1C66.1,65,66.5,65.4,66.7,65.7c0,0.1,0,0.1,0.1,0.1C66.8,65.7,66.7,65.7,66.7,65.7z M67.8,52.9
		c0-0.1-0.1-0.2-0.3-0.2c-0.4-0.1-0.9-0.1-1,0.2c0.1,0.4-0.1,0.9,0.4,0.8C67.4,53.5,67.7,53.4,67.8,52.9z M69.7,52.5
		c0.3-0.6,1-1.3,0.6-2.3c-0.6-0.3-1.6,0.5-1.6,1.4C69.1,51.9,69.6,52.2,69.7,52.5L69.7,52.5z M68.8,56.7l-0.3,0.6l0.4-0.3L68.8,56.7
		z M68.7,70.3c0.2,0.1,0.6-0.3,0.4-0.4l-0.2-0.1L68.7,70.3z M70.7,59.6c-0.9-0.3-2,0.4-2.3,1.4c0.9-0.4,0,0.8,0.5,1.3
		c0.5,0,1,0.4,1.3-0.1c0-0.6,0-1.1-0.4-1.5C70.1,60.2,71.1,60.4,70.7,59.6z M71.7,48.1c-0.4,0.5-0.6,1.1-0.8,1.6
		c0.2-0.5,1.6-0.8,1.3-1.8C72,47.9,72,48.3,71.7,48.1z M72.3,54.2c0.1-0.2,0.4-0.5,0-0.6c-0.8-0.1-1.1,0.3-1,1L72.3,54.2z
		 M73.1,65.5c0.1-0.4,0.4-1,0-1.3l-0.8,0.9C72.6,65.4,72.7,65.5,73.1,65.5z M73.6,52.2c0.9-1.1-0.4-2.1-0.3-3.4
		c-1.1,0.8-2.4,1.6-2.3,3.3C71.7,52.2,72.9,52.2,73.6,52.2z M74,47.4c0.1-0.3,0.6-0.1,0.9-0.4c0.5-0.4,1.4-0.9,1.6-1.6h-0.6
		C76,47,73.6,46.2,74,47.4L74,47.4z M76.5,52.5c0.4,0.3,0.4,0.5,0.4,0.8c0.8-0.1,0.8-1,1.5-1.5c0.1-1.9-0.9,0.1-1.5,0.1
		c-0.2-0.1-0.1-0.4-0.1-0.6c-0.2,0-0.5,0-0.5,0.2c-0.1,0.6-1.1,0.8-1.6,0.6v0.4C75.1,52.7,76,53.5,76.5,52.5z M77.8,53.8
		c-0.3,0.1-0.6,0.6-0.5,1c0.6,0,1.1-0.5,1.3-1.1C78.4,53.4,78.2,53.9,77.8,53.8z M76,55.8v0.6h0.1v-0.6L76,55.8z M75.6,67.7
		c-0.3,0.4-0.8,0.8-0.4,1.4c0.6,0.1,1.9-0.4,2.5-0.9C77.7,66.9,76.5,68.3,75.6,67.7L75.6,67.7z M77.4,71.5c-0.6-1.4,1.3-0.9,1.4-2
		c-1-1-2.1,0.3-3.3,0.6c0,0.1-0.6,0.5-0.2,0.8C75.9,71,76.8,71.7,77.4,71.5z M82.2,67c0.1-0.8,0-1.6-0.9-1.6
		c-0.1,0.5-0.5,1.1-0.4,1.9C81.3,67.8,81.9,67.4,82.2,67z M81.4,58.7v-0.4h-0.1v0.4H81.4z M87.1,64.3c0.6,0.4,0.8-0.8,1.6-0.4
		c-0.8-0.4-2-0.5-2.5-1.5c0.4-0.2,0.6-0.2,0.5-0.9l-0.6-0.1v-0.1c-0.4,0.3-0.6,0.4-1,0.5c0.4,1.5-1.3,0.9-1.9,1.4
		c-0.3,1,1,0.6,0.9,1.4c0.6,0,0-0.6,0.1-1c0.4-0.6,1.3-0.5,1.9-0.5C86.7,63.4,86.7,63.8,87.1,64.3z M90.4,66.9
		c0.2-0.5-0.4-0.8-0.8-0.6l-0.1,1.1c-0.6,0.9-1.6-0.5-2,0.2c0.2,0.5,1.3,0.5,1.9,0.4C89.6,67.7,90.6,67.7,90.4,66.9z M92.4,68.4
		c0-0.4,0-0.6-0.4-0.6c-0.1,0.1-0.6,0.4-0.3,0.6C92,68.4,92.3,68.6,92.4,68.4z"/>
</g>
</svg>
